<svg width="1200" height="630" viewBox="0 0 1200 630" fill="none" xmlns="http://www.w3.org/2000/svg">
  <rect width="1200" height="630" fill="#07111F"/>
  <rect x="36" y="36" width="1128" height="558" rx="32" fill="url(#panel)" stroke="rgba(255,255,255,0.12)"/>
  <circle cx="986" cy="136" r="132" fill="url(#glowA)" fill-opacity="0.58"/>
  <circle cx="196" cy="526" r="164" fill="url(#glowB)" fill-opacity="0.42"/>
  <rect x="86" y="86" width="290" height="42" rx="21" fill="#0EA5E9" fill-opacity="0.16" stroke="#38BDF8" stroke-opacity="0.42"/>
  <text x="114" y="114" fill="#7DD3FC" font-family="IBM Plex Sans, sans-serif" font-size="22" font-weight="700" letter-spacing="0.18em">SHREYASH KONDAKINDI</text>
  <text x="86" y="220" fill="#F8FAFC" font-family="Space Grotesk, sans-serif" font-size="72" font-weight="700">AI Engineer</text>
  <text x="86" y="304" fill="#F8FAFC" font-family="Space Grotesk, sans-serif" font-size="72" font-weight="700">Data Systems</text>
  <text x="86" y="388" fill="#F8FAFC" font-family="Space Grotesk, sans-serif" font-size="72" font-weight="700">&amp; Analytics</text>
  <text x="90" y="470" fill="#CBD5E1" font-family="IBM Plex Sans, sans-serif" font-size="28" font-weight="500">LLM systems, data engineering, fraud analytics, and production-ready portfolio work.</text>
  <path d="M86 540C180 484 284 454 392 454C502 454 612 492 744 566C836 618 922 636 1010 636C1082 636 1142 622 1192 598" stroke="#67E8F9" stroke-width="8" stroke-linecap="round"/>
  <defs>
    <linearGradient id="panel" x1="60" y1="60" x2="1140" y2="590" gradientUnits="userSpaceOnUse">
      <stop stop-color="#0B1728"/>
      <stop offset="1" stop-color="#091320"/>
    </linearGradient>
    <radialGradient id="glowA" cx="0" cy="0" r="1" gradientUnits="userSpaceOnUse" gradientTransform="translate(986 136) rotate(90) scale(132)">
      <stop stop-color="#38BDF8"/>
      <stop offset="1" stop-color="#38BDF8" stop-opacity="0"/>
    </radialGradient>
    <radialGradient id="glowB" cx="0" cy="0" r="1" gradientUnits="userSpaceOnUse" gradientTransform="translate(196 526) rotate(90) scale(164)">
      <stop stop-color="#14B8A6"/>
      <stop offset="1" stop-color="#14B8A6" stop-opacity="0"/>
    </radialGradient>
  </defs>
</svg>
