<svg width="1600" height="900" viewBox="0 0 1600 900" fill="none" xmlns="http://www.w3.org/2000/svg">
  <rect width="1600" height="900" fill="#07111F" />
  <rect x="72" y="72" width="1456" height="756" rx="36" fill="url(#panel)" stroke="rgba(255,255,255,0.12)" />
  <circle cx="1328" cy="232" r="172" fill="url(#glowA)" fill-opacity="0.55" />
  <circle cx="320" cy="692" r="208" fill="url(#glowB)" fill-opacity="0.45" />
  <path d="M148 668C264 552 364 510 452 510C540 510 644 564 776 656C902 744 1010 790 1102 790C1194 790 1294 750 1408 662" stroke="#67E8F9" stroke-width="12" stroke-linecap="round" stroke-linejoin="round" />
  <path d="M148 588C252 500 358 456 462 456C566 456 672 496 804 578C930 656 1032 696 1112 696C1198 696 1298 660 1408 576" stroke="#F8FAFC" stroke-opacity="0.28" stroke-width="8" stroke-linecap="round" stroke-linejoin="round" />
  <rect x="164" y="170" width="220" height="38" rx="19" fill="#0EA5E9" fill-opacity="0.16" stroke="#38BDF8" stroke-opacity="0.4" />
  <text x="194" y="195" fill="#7DD3FC" font-family="'IBM Plex Sans', sans-serif" font-size="24" font-weight="700" letter-spacing="0.22em">MACHINE LEARNING</text>
  <text x="164" y="304" fill="#F8FAFC" font-family="'Space Grotesk', sans-serif" font-size="92" font-weight="700">
    <tspan x="164" y="304">ML Projects</tspan>
    <tspan x="164" y="402">Collection</tspan>
  </text>
  <text x="168" y="484" fill="#CBD5E1" font-family="'IBM Plex Sans', sans-serif" font-size="34" font-weight="500">
    Exploratory modeling work and early public ML portfolio coverage
  </text>
  <rect x="1088" y="178" width="252" height="152" rx="28" fill="#081426" stroke="rgba(255,255,255,0.12)" />
  <rect x="1132" y="220" width="162" height="18" rx="9" fill="#67E8F9" fill-opacity="0.82" />
  <rect x="1132" y="260" width="118" height="18" rx="9" fill="#F8FAFC" fill-opacity="0.52" />
  <rect x="1132" y="472" width="268" height="168" rx="28" fill="#081426" stroke="rgba(255,255,255,0.12)" />
  <circle cx="1184" cy="556" r="18" fill="#38BDF8" />
  <circle cx="1260" cy="518" r="18" fill="#F8FAFC" fill-opacity="0.76" />
  <circle cx="1340" cy="590" r="18" fill="#22D3EE" />
  <path d="M1184 556L1260 518L1340 590" stroke="#67E8F9" stroke-width="8" stroke-linecap="round" stroke-linejoin="round" />
  <defs>
    <linearGradient id="panel" x1="112" y1="108" x2="1428" y2="812" gradientUnits="userSpaceOnUse">
      <stop stop-color="#0B1728" />
      <stop offset="1" stop-color="#091423" />
    </linearGradient>
    <radialGradient id="glowA" cx="0" cy="0" r="1" gradientUnits="userSpaceOnUse" gradientTransform="translate(1328 232) rotate(90) scale(172)">
      <stop stop-color="#38BDF8" />
      <stop offset="1" stop-color="#38BDF8" stop-opacity="0" />
    </radialGradient>
    <radialGradient id="glowB" cx="0" cy="0" r="1" gradientUnits="userSpaceOnUse" gradientTransform="translate(320 692) rotate(90) scale(208)">
      <stop stop-color="#14B8A6" />
      <stop offset="1" stop-color="#14B8A6" stop-opacity="0" />
    </radialGradient>
  </defs>
</svg>
