<svg width="1600" height="900" viewBox="0 0 1600 900" fill="none" xmlns="http://www.w3.org/2000/svg">
  <rect width="1600" height="900" fill="#07111F" />
  <rect x="72" y="72" width="1456" height="756" rx="36" fill="url(#panel)" stroke="rgba(255,255,255,0.12)" />
  <circle cx="1254" cy="190" r="150" fill="url(#glowA)" fill-opacity="0.5" />
  <circle cx="250" cy="734" r="194" fill="url(#glowB)" fill-opacity="0.45" />
  <rect x="156" y="156" width="1288" height="588" rx="30" fill="#081321" stroke="rgba(255,255,255,0.1)" />
  <rect x="208" y="210" width="300" height="26" rx="13" fill="#67E8F9" fill-opacity="0.85" />
  <rect x="208" y="260" width="666" height="32" rx="16" fill="#F8FAFC" fill-opacity="0.14" />
  <rect x="208" y="314" width="562" height="32" rx="16" fill="#F8FAFC" fill-opacity="0.1" />
  <rect x="960" y="208" width="424" height="208" rx="28" fill="url(#card)" stroke="rgba(255,255,255,0.12)" />
  <rect x="1002" y="254" width="184" height="18" rx="9" fill="#22D3EE" fill-opacity="0.7" />
  <rect x="1002" y="294" width="306" height="18" rx="9" fill="#F8FAFC" fill-opacity="0.28" />
  <rect x="1002" y="334" width="220" height="18" rx="9" fill="#F8FAFC" fill-opacity="0.18" />
  <rect x="208" y="416" width="344" height="238" rx="28" fill="url(#card)" stroke="rgba(255,255,255,0.12)" />
  <rect x="592" y="416" width="344" height="238" rx="28" fill="url(#card)" stroke="rgba(255,255,255,0.12)" />
  <rect x="976" y="454" width="368" height="162" rx="28" fill="url(#card)" stroke="rgba(255,255,255,0.12)" />
  <rect x="252" y="464" width="180" height="18" rx="9" fill="#38BDF8" fill-opacity="0.6" />
  <rect x="252" y="508" width="232" height="18" rx="9" fill="#F8FAFC" fill-opacity="0.22" />
  <rect x="252" y="548" width="198" height="18" rx="9" fill="#F8FAFC" fill-opacity="0.14" />
  <rect x="636" y="464" width="180" height="18" rx="9" fill="#38BDF8" fill-opacity="0.6" />
  <rect x="636" y="508" width="232" height="18" rx="9" fill="#F8FAFC" fill-opacity="0.22" />
  <rect x="636" y="548" width="198" height="18" rx="9" fill="#F8FAFC" fill-opacity="0.14" />
  <path d="M1032 572C1082 520 1126 494 1182 494C1240 494 1288 522 1344 592" stroke="#67E8F9" stroke-width="8" stroke-linecap="round" />
  <path d="M1032 610C1078 576 1128 556 1186 556C1246 556 1296 576 1344 610" stroke="#F8FAFC" stroke-opacity="0.24" stroke-width="8" stroke-linecap="round" />
  <rect x="164" y="768" width="250" height="38" rx="19" fill="#0EA5E9" fill-opacity="0.16" stroke="#38BDF8" stroke-opacity="0.4" />
  <text x="196" y="793" fill="#7DD3FC" font-family="'IBM Plex Sans', sans-serif" font-size="24" font-weight="700" letter-spacing="0.22em">PORTFOLIO ENGINEERING</text>
  <text x="548" y="810" text-anchor="middle" fill="#F8FAFC" font-family="'Space Grotesk', sans-serif" font-size="64" font-weight="700">Recruiter-ready technical portfolio</text>
  <defs>
    <linearGradient id="panel" x1="96" y1="84" x2="1450" y2="820" gradientUnits="userSpaceOnUse">
      <stop stop-color="#0C182B" />
      <stop offset="1" stop-color="#091320" />
    </linearGradient>
    <linearGradient id="card" x1="208" y1="208" x2="1384" y2="646" gradientUnits="userSpaceOnUse">
      <stop stop-color="#0F1C2E" />
      <stop offset="1" stop-color="#0A1522" />
    </linearGradient>
    <radialGradient id="glowA" cx="0" cy="0" r="1" gradientUnits="userSpaceOnUse" gradientTransform="translate(1254 190) rotate(90) scale(150)">
      <stop stop-color="#38BDF8" />
      <stop offset="1" stop-color="#38BDF8" stop-opacity="0" />
    </radialGradient>
    <radialGradient id="glowB" cx="0" cy="0" r="1" gradientUnits="userSpaceOnUse" gradientTransform="translate(250 734) rotate(90) scale(194)">
      <stop stop-color="#14B8A6" />
      <stop offset="1" stop-color="#14B8A6" stop-opacity="0" />
    </radialGradient>
  </defs>
</svg>
